<svg width="82" height="82" viewBox="0 0 82 82" fill="none" xmlns="http://www.w3.org/2000/svg">
<circle cx="41" cy="41" r="35" fill="white"/>
<path d="M47.4159 1.01143C56.9235 2.53687 65.5765 7.39993 71.8228 14.7283C78.0691 22.0567 81.5 31.3708 81.5 41" stroke="white"/>
<path fill-rule="evenodd" clip-rule="evenodd" d="M24 40.5C24 40.8094 24.1242 41.1061 24.3452 41.3248C24.5662 41.5436 24.8659 41.6665 25.1785 41.6665L52.9745 41.6665L45.5571 49.0061C45.3358 49.2252 45.2114 49.5223 45.2114 49.832C45.2114 50.1418 45.3358 50.4389 45.5571 50.6579C45.7783 50.8769 46.0785 51 46.3914 51C46.7044 51 47.0045 50.8769 47.2258 50.6579L56.6538 41.3259C56.7635 41.2175 56.8506 41.0888 56.91 40.9471C56.9694 40.8054 57 40.6534 57 40.5C57 40.3466 56.9694 40.1946 56.91 40.0529C56.8506 39.9112 56.7635 39.7825 56.6538 39.6741L47.2258 30.3421C47.1162 30.2336 46.9862 30.1476 46.843 30.0889C46.6998 30.0302 46.5464 30 46.3914 30C46.0785 30 45.7783 30.1231 45.5571 30.3421C45.3358 30.5611 45.2114 30.8582 45.2114 31.168C45.2114 31.4777 45.3358 31.7748 45.5571 31.9939L52.9745 39.3335L25.1785 39.3335C24.8659 39.3335 24.5662 39.4564 24.3452 39.6752C24.1242 39.8939 24 40.1906 24 40.5Z" fill="black"/>
</svg>
